<svg id="Layer_1" data-name="Layer 1" xmlns="http://www.w3.org/2000/svg" viewBox="0 0 257.08 258.49">
  <defs>
    <style>
      .cls-1 {
        fill: #231f20;
      }

      .cls-2 {
        fill: none;
      }
    </style>
  </defs>
  <title>logo-mark</title>
  <path class="cls-1" d="M258.84,260H1.76V1.51H258.84V260ZM22.16,239.6H238.44V21.9H22.16V239.6Z" transform="translate(-1.76 -1.51)"/>
  <path class="cls-2" d="M192,71.85H139.23v57.43l25.87,0h17.06a9.87,9.87,0,0,0,9.83-9.88V105.52h0V71.85Z" transform="translate(-1.76 -1.51)"/>
  <path d="M209.84,102.34h0V54h-70l-9.53,8.74L120.77,54h-70v5.05h0V207.51H68.61V71.85h52.78V207.51h17.85V147.13c9.65,0,23.27,0,25.78,0h17.1A9.87,9.87,0,0,1,192,157h0v17.38c0,0.2,0,.4,0,0.59h0v32.53h17.85V174.38c0-.11,0-0.21,0-0.32V157a27.52,27.52,0,0,0-7.4-18.76,27.62,27.62,0,0,0,7.4-18.8v-17.1ZM192,119.44a9.87,9.87,0,0,1-9.83,9.88H165.1l-25.87,0V71.85H192v33.68h0v13.92Z" transform="translate(-1.76 -1.51)"/>
</svg>
